<?xml version="1.0" encoding="iso-8859-1"?>
<!-- Generator: Adobe Illustrator 19.0.0, SVG Export Plug-In . SVG Version: 6.00 Build 0)  -->
<svg version="1.1" id="Layer_1" xmlns="http://www.w3.org/2000/svg" xmlns:xlink="http://www.w3.org/1999/xlink" x="0px" y="0px"
	 viewBox="0 0 512 512" style="enable-background:new 0 0 512 512;" xml:space="preserve">
<path style="fill:#B3404A;" d="M255.999,512c-8.339,0-15.986-3.83-20.981-10.509L102.226,323.965
	c-5.978-7.992-6.915-18.501-2.446-27.426c4.47-8.924,13.446-14.469,23.427-14.469h34.365c7.39,0,13.383,5.992,13.383,13.383
	c0,7.392-5.993,13.383-13.383,13.383h-33.236l131.663,176.018l131.663-176.016H221.839c-7.39,0-13.383-5.992-13.383-13.383
	c0-7.392,5.993-13.383,13.383-13.383h166.955c9.981,0,18.959,5.545,23.429,14.47c4.469,8.924,3.53,19.434-2.449,27.425
	L276.98,501.493C271.986,508.171,264.34,512,255.999,512z"/>
<path style="fill:#F4B2B0;" d="M123.205,216.546c-10.554,0-16.586-12.044-10.264-20.495L245.736,18.524
	c5.126-6.854,15.401-6.854,20.527,0l132.794,177.527c6.322,8.452,0.29,20.495-10.264,20.495H123.205z"/>
<path style="fill:#B3404A;" d="M388.793,229.929H123.207c-9.983,0-18.959-5.545-23.429-14.47c-4.469-8.924-3.53-19.434,2.449-27.425
	L235.018,10.507C240.013,3.83,247.66,0,255.999,0c8.339,0,15.986,3.83,20.981,10.509l132.794,177.526
	c5.978,7.992,6.915,18.501,2.446,27.426C407.751,224.385,398.774,229.929,388.793,229.929z M124.336,203.162h263.326L255.999,27.145
	L124.336,203.162z"/>
<g>
</g>
<g>
</g>
<g>
</g>
<g>
</g>
<g>
</g>
<g>
</g>
<g>
</g>
<g>
</g>
<g>
</g>
<g>
</g>
<g>
</g>
<g>
</g>
<g>
</g>
<g>
</g>
<g>
</g>
</svg>
